<?xml version="1.0" encoding="utf-8"?>
<!-- Generator: Adobe Illustrator 21.0.0, SVG Export Plug-In . SVG Version: 6.00 Build 0)  -->
<svg version="1.1" id="Capa_1" xmlns="http://www.w3.org/2000/svg" xmlns:xlink="http://www.w3.org/1999/xlink" x="0px" y="0px"
	 viewBox="0 0 480 480" style="enable-background:new 0 0 480 480;" xml:space="preserve">
<style type="text/css">
	.st0{fill:#F34970;}
</style>
<path class="st0" d="M80,64h16v16H80V64z"/>
<path class="st0" d="M128,64h16v16h-16V64z"/>
<path class="st0" d="M112,128c1.6,0,3.1-0.5,4.4-1.3l24-16c3.7-2.5,4.7-7.4,2.2-11.1s-7.4-4.7-11.1-2.2L112,110.4l-19.6-13
	c-3.7-2.5-8.6-1.5-11.1,2.2c-2.5,3.7-1.5,8.6,2.2,11.1l24,16C108.9,127.5,110.4,128,112,128z"/>
<path class="st0" d="M432,392h-16v40h-16v16h32V392z"/>
<path class="st0" d="M368,432h16v16h-16V432z"/>
<path class="st0" d="M344,352H136v96h208V352z M328,432H152v-64h176V432z"/>
<path class="st0" d="M48,352h16v16H48V352z"/>
<path class="st0" d="M72,376h16v16H72V376z"/>
<path class="st0" d="M472,192h-8v-8c0-9.5-5.5-18.1-14.2-21.9s-18.8-2.2-25.8,4.2c-7-6.4-17.1-8-25.8-4.2S384,174.5,384,184v8h-16
	v-8c0-13.3-10.7-24-24-24s-24,10.7-24,24v8h-40c-4.4,0-8,3.6-8,8v32c0,4.4,3.6,8,8,8h8v48H176v-93.4l45.8,13.1
	c2.1,0.6,4.3,0.3,6.2-0.7l55.5-31.7l39.5-15.8c3-1.2,5-4.1,5-7.4v-8h64v-16h-22.6l5.3-32h9.2V80h-9.8l-6.5-25.9
	c-0.9-3.6-4.1-6.1-7.8-6.1h-32c-3.7,0-6.9,2.5-7.8,6.1L313.8,80h-19.5l-6.5-25.9c-0.9-3.6-4.1-6.1-7.8-6.1h-32
	c-3.7,0-6.9,2.5-7.8,6.1L233.8,80H224v16h9.2l5.3,32H216v16h33.9L223,159.4L176,146v-26c17.7,0,32-14.3,32-32s-14.3-32-32-32V0H48
	v56c-17.7,0-32,14.3-32,32s14.3,32,32,32v24h-8c-13.3,0-24,10.7-24,24v120H8c-4.4,0-8,3.6-8,8v32c0,4.4,3.6,8,8,8h8v136
	c0,4.4,3.6,8,8,8h432c4.4,0,8-3.6,8-8V336h8c4.4,0,8-3.6,8-8v-32c0-4.4-3.6-8-8-8h-8v-48h8c4.4,0,8-3.6,8-8v-32
	C480,195.6,476.4,192,472,192z M440,176c4.4,0,8,3.6,8,8v8h-16v-8C432,179.6,435.6,176,440,176z M400,184c0-4.4,3.6-8,8-8s8,3.6,8,8
	v8h-16V184z M336,184c0-4.4,3.6-8,8-8s8,3.6,8,8v8h-16V184z M64,160h16v56H64V160z M96,216v-35.1l9.1,15.2c1.4,2.4,4,3.9,6.9,3.9
	s5.4-1.5,6.9-3.9l9.1-15.2V216H96z M112,176.4l-9.9-16.4h19.7L112,176.4z M64,232h96v56H64V232z M144,216v-56h16v56H144z M312,146.6
	l-24,9.6V144h24V146.6z M334.8,128l-5.3-32h29.1l-5.3,32H334.8z M334.2,64h19.5l4,16h-27.5L334.2,64z M313.2,96l5.3,32h-29.1l5.3-32
	H313.2z M254.2,64h19.5l4,16h-27.5L254.2,64z M249.4,96h29.1l-5.3,32h-18.4L249.4,96z M228,174.9l44-25.2v13.6l-49,28L176,178v-15.4
	l45.8,13.1C223.9,176.3,226.1,176,228,174.9z M192,88c0,8.8-7.2,16-16,16V72C184.8,72,192,79.2,192,88z M64,16h96v16H64V16z M32,88
	c0-8.8,7.2-16,16-16v32C39.2,104,32,96.8,32,88z M64,48h96v96H64V48z M32,168c0-4.4,3.6-8,8-8h8v32H32V168z M32,208h16v80H32V208z
	 M448,464H32V336h416V464z M464,320H16v-16h448V320z M448,288h-52.7l18.3-18.3l-11.3-11.3L372.7,288h-25.4l18.3-18.3l-11.3-11.3
	L324.7,288H304v-48h144V288z M464,224H288v-16h176V224z"/>
</svg>
