<?xml version="1.0" encoding="utf-8"?>
<!-- Generator: Adobe Illustrator 21.0.0, SVG Export Plug-In . SVG Version: 6.00 Build 0)  -->
<svg version="1.1" id="Capa_1" xmlns="http://www.w3.org/2000/svg" xmlns:xlink="http://www.w3.org/1999/xlink" x="0px" y="0px"
	 viewBox="0 0 480 480" style="enable-background:new 0 0 480 480;" xml:space="preserve">
<style type="text/css">
	.st0{fill:#F34970;}
</style>
<path class="st0" d="M64,448c4.3,0,8.7-0.5,12.9-1.4l-4.8,23.8c-0.5,2.4,0.1,4.8,1.7,6.7c1.5,1.9,3.8,2.9,6.2,2.9h32
	c3.8,0,7.1-2.7,7.8-6.4l5.7-28.4c6,1.8,12.2,2.8,18.5,2.8c14.7-0.2,29-5.2,40.7-14.2c34.4,18.9,76.1,18.9,110.5,0
	c11.7,9,26,13.9,40.7,14.2c6.3,0,12.5-1,18.5-2.8l5.7,28.4c0.8,3.7,4,6.4,7.8,6.4h32c2.4,0,4.7-1.1,6.2-2.9c1.5-1.9,2.1-4.3,1.6-6.7
	l-4.8-23.8c4.2,0.9,8.6,1.4,12.9,1.4c16.9-0.3,33.2-6.8,45.7-18.3c1.8-1.8,2.6-4.2,2.3-6.7l-32-240c-0.5-4-3.9-6.9-7.9-6.9h-32
	v-36.7l29.7-29.7c2.3-2.3,3-5.7,1.7-8.7S419.2,96,416,96h-64c-3.2,0-6.2,1.9-7.4,4.9s-0.6,6.4,1.7,8.7l29.7,29.7V176h-48V80
	c-0.4-11.5-6.4-22.1-16-28.4V8c0-4.4-3.6-8-8-8h-32c-4.4,0-8,3.6-8,8v43.6c-9.6,6.3-15.6,16.9-16,28.4v96h-80v-36.7l29.7-29.7
	c2.3-2.3,3-5.7,1.7-8.7S195.2,96,192,96h-64c-3.2,0-6.2,1.9-7.4,4.9s-0.6,6.4,1.7,8.7l29.7,29.7V176H56c-4,0-7.4,3-7.9,6.9l-32,240
	c-0.3,2.5,0.5,4.9,2.3,6.7C30.8,441.2,47,447.7,64,448z M396.7,112L384,124.7L371.3,112H396.7z M172.7,112L160,124.7L147.3,112
	H172.7z M105.4,464H89.8l4.8-23.8c3.3-1.7,6.4-3.7,9.4-5.8c2.1,1.5,4.3,3,6.5,4.3L105.4,464z M390.2,464h-15.7l-5.1-25.4
	c2.2-1.3,4.4-2.7,6.5-4.2c3,2.2,6.2,4.2,9.5,5.9L390.2,464z M312,136h-16v-32h16V136z M280,16h16v16h-16V16z M264,80
	c0.8-7.2,5.2-13.5,11.6-16.8c2.7-1.4,4.4-4.2,4.4-7.2v-8h16v8c0,3,1.7,5.8,4.4,7.1c6.4,3.3,10.8,9.7,11.6,16.9v8h-24
	c-4.4,0-8,3.6-8,8v48c0,4.4,3.6,8,8,8h24v24h-48V80z M58.7,224H104v-16H60.9l2.1-16h354l30.5,228.8c-18.7,15.3-45.7,15-64-0.8
	l-15.6-117l-15.9,2.1l15.4,115.7c-9,7.1-20,11-31.5,11.2c-11.8-0.3-23.1-4.4-32.2-11.8L296,279.6l-16,0.9l7.7,139.3
	c-29.7,16.4-65.8,16.4-95.5,0l7.8-163.3l-16-0.8l-7.8,164.6c-9.1,7.4-20.4,11.6-32.2,11.8c-11.5-0.3-22.5-4.2-31.6-11.3l15.5-131.7
	l-15.9-1.9L96.4,420c-9.1,7.6-20.6,11.8-32.4,12c-11.4-0.3-22.5-4.2-31.5-11.3L58.7,224z"/>
<path class="st0" d="M120,208h16v16h-16V208z"/>
<path class="st0" d="M408,384h16v16h-16V384z"/>
</svg>
