<?xml version="1.0" encoding="utf-8"?>
<!-- Generator: Adobe Illustrator 21.0.0, SVG Export Plug-In . SVG Version: 6.00 Build 0)  -->
<svg version="1.1" id="Capa_1" xmlns="http://www.w3.org/2000/svg" xmlns:xlink="http://www.w3.org/1999/xlink" x="0px" y="0px"
	 viewBox="0 0 480 480" style="enable-background:new 0 0 480 480;" xml:space="preserve">
<style type="text/css">
	.st0{fill:#F34970;}
</style>
<path class="st0" d="M448,56.1h-2.3c-6.7-14.8-23.9-24-45.7-24c-23.3,0-38.2,7.9-45.5,24H352c-8.7-0.6-17.2,2.6-23.3,8.7
	c-6.1,6.1-9.3,14.6-8.7,23.3v8c0,4.4,3.6,8,8,8h144c4.4,0,8-3.6,8-8v-8c0.2-8.5-3.1-16.8-9.2-22.8C464.8,59.2,456.5,55.9,448,56.1z
	 M336,88.1c-0.5-4.4,1-8.8,4.1-11.9c3.1-3.1,7.5-4.6,11.9-4.1h8c3.5,0,6.6-2.3,7.6-5.6c3-9.6,8.9-18.4,32.4-18.4
	c12.9,0,29.1,4.7,32.2,17.8c0.8,3.6,4.1,6.2,7.8,6.2h8c4.3-0.2,8.5,1.4,11.5,4.5c3,3,4.7,7.2,4.5,11.5H336z"/>
<path class="st0" d="M8.1,152.1h144c4.4,0,8-3.6,8-8v-8c0.2-8.5-3.1-16.8-9.2-22.8c-6-6-14.3-9.4-22.8-9.2h-2.3
	c-6.7-14.8-23.9-24-45.7-24c-23.3,0-38.2,7.9-45.5,24h-2.5c-8.7-0.6-17.2,2.6-23.3,8.7c-6.1,6.1-9.3,14.6-8.7,23.3v8
	C0.1,148.5,3.7,152.1,8.1,152.1z M32.1,120.1h8c3.5,0,6.6-2.3,7.6-5.6c3-9.6,8.9-18.4,32.4-18.4c12.9,0,29.1,4.7,32.2,17.8
	c0.8,3.6,4.1,6.2,7.8,6.2h8c4.3-0.2,8.5,1.4,11.5,4.5c3,3,4.7,7.2,4.5,11.5h-128c-0.5-4.4,1-8.8,4.1-11.9
	C23.3,121,27.7,119.5,32.1,120.1z"/>
<path class="st0" d="M170,296h-34c-2.5,0-4.8,1.1-6.3,3.1c-1.5,1.9-2.1,4.5-1.5,6.9l8,32c0.9,3.6,4.1,6.1,7.8,6.1h4.1
	c-13.4,33.5-28.8,64.2-45.1,96.3c-3.9,7.7-7.9,15.6-12,23.7h-51v16H440v-16h-51.1c-4.8-9.5-9.5-18.8-14.2-27.9
	c-16-29.9-30.4-60.6-43-92.1h4.3c3.7,0,6.9-2.5,7.8-6.1l8-32c0.6-2.4,0.1-4.9-1.5-6.9c-1.5-1.9-3.8-3.1-6.3-3.1h-34
	c-8.1-29-14.8-58.3-19.9-88h5.8c3.7,0,6.9-2.5,7.8-6.1l8-32c0.6-2.4,0.1-4.9-1.5-6.9c-1.5-1.9-3.8-3.1-6.3-3.1h-25.1
	c-4-29.6-5.8-52.5-6.5-64H288v-48h-24v-32h-16v-16h-16v16h-16v32h-24v48h15.8c-0.9,21.4-3.1,42.8-6.6,64H176c-2.5,0-4.8,1.1-6.3,3.1
	c-1.5,1.9-2.1,4.5-1.5,6.9l8,32c0.9,3.6,4.1,6.1,7.8,6.1h6.3l-1,5.2C184.3,241.1,177.9,268.8,170,296z M152.3,464H109
	c2.7-5.4,5.4-10.7,8.1-16h36.9C153.2,453.3,152.6,458.6,152.3,464z M168.4,464c1.8-23.2,12-88,71.6-88c59.6,0,69.8,64.8,71.6,88
	H168.4z M371,464h-43.2c-0.3-5.4-0.9-10.7-1.8-16h36.8C365.5,453.3,368.3,458.6,371,464z M354.6,432h-32.2
	c-9.6-35.2-33.1-72-82.5-72s-72.9,36.8-82.5,72h-32.3c14.9-28.6,28.4-58,40.3-88h148.9C326.1,374.1,339.5,403.5,354.6,432z
	 M333.8,312l-4,16H150.3l-4-16H333.8z M218,296l12.4-56h19.2l12.4,56H218z M232,32.1h16v16h-16V32.1z M208,64.1h64v16h-64V64.1z
	 M232,144.1v16h-14.6c3.4-21.2,5.5-42.6,6.4-64h32.5c0.7,11.2,2.3,34,6.4,64H248v-16H232z M190.3,192l-4-16h107.5l-4,16H190.3z
	 M205,216.3l1.6-8.2H274c4.4,24.8,10.4,55.6,19.4,88h-15l-14.6-65.7c-0.8-3.7-4.1-6.3-7.8-6.3h-32c-3.8,0-7,2.6-7.8,6.3L201.6,296
	h-14.8C195,268.1,200.3,240.7,205,216.3z"/>
</svg>
