<svg height="512pt" viewBox="0 0 512 512" width="512pt" xmlns="http://www.w3.org/2000/svg"><path d="m491.832031 156.242188c-1.613281-3.8125-6.015625-5.597657-9.828125-3.980469-3.816406 1.617187-5.597656 6.015625-3.984375 9.832031 12.59375 29.738281 18.980469 61.332031 18.980469 93.90625 0 19.039062-2.222656 37.78125-6.527344 55.914062l-35.015625-35.015624c-2.570312-2.570313-5.820312-4.253907-9.40625-4.871094l-50.726562-8.730469c-.511719-.089844-.976563-.328125-1.34375-.695313l-7.128907-7.128906c-.464843-.464844-.734374-1.109375-.734374-1.769531v-68.519531c0-.660156.269531-1.304688.734374-1.769532l10.460938-10.460937c3.304688-3.304687 5.125-7.699219 5.125-12.375v-95.976563c24.171875 18.535157 44.78125 41.574219 60.484375 67.800782 2.125 3.554687 6.730469 4.710937 10.285156 2.582031 3.554688-2.128906 4.710938-6.734375 2.582031-10.289063-22.335937-37.308593-54.023437-68.554687-91.632812-90.347656-38.777344-22.46875-83.089844-34.347656-128.15625-34.347656-68.378906 0-132.667969 26.628906-181.019531 74.980469-48.351563 48.351562-74.980469 112.640625-74.980469 181.019531 0 41.167969 10.007812 82.089844 28.945312 118.34375 18.324219 35.074219 44.992188 65.90625 77.128907 89.164062 1.328125.960938 2.867187 1.425782 4.390625 1.425782 2.324218 0 4.617187-1.078125 6.082031-3.105469 2.429687-3.351563 1.679687-8.042969-1.675781-10.472656-30.265625-21.902344-55.378906-50.933594-72.628906-83.957031-17.820313-34.117188-27.242188-72.636719-27.242188-111.398438 0-60.429688 22.09375-117.460938 62.453125-161.878906l15.03125 41.664062c2.617187 7.265625 9.570313 12.144532 17.289063 12.144532h74.371093c.90625 0 1.753907.351562 2.394531.992187l5.179688 5.179687c-24.4375 15.304688-40.722656 42.46875-40.722656 73.367188 0 36.980469 51.179687 130.261719 73.183594 168.652344 2.773437 4.835937 7.753906 7.722656 13.328124 7.722656 5.574219 0 10.554688-2.886719 13.328126-7.722656 5.9375-10.363282 14.007812-24.730469 22.617187-40.90625h71.429687c.902344 0 1.75.351562 2.390626.988281l48.25 48.25c.636718.640625.992187 1.488281.992187 2.394531v44.988282c-37.402344 26.917968-81.78125 42.582031-128.550781 44.867187-4.136719.203125-7.328125 3.722656-7.125 7.859375.195312 4.011719 3.511718 7.132812 7.484375 7.132812.125 0 .25-.003906.371093-.007812 65.683594-3.210938 126.933594-31.234375 172.460938-78.90625 45.683594-47.832031 70.84375-110.613281 70.84375-176.78125 0-34.59375-6.785156-68.15625-20.167969-99.757812zm-254.011719 232.417968c-.054687.09375-.105468.183594-.3125.183594-.207031 0-.257812-.089844-.3125-.183594-16.703124-29.136718-71.199218-126.878906-71.199218-161.191406 0-39.429688 32.082031-71.511719 71.511718-71.511719 39.429688 0 71.511719 32.082031 71.511719 71.511719 0 34.3125-54.496093 132.054688-71.199219 161.191406zm192.488282 33.761719c-5.984375 6.265625-12.265625 12.15625-18.792969 17.6875v-33.261719c0-4.910156-1.914063-9.527344-5.386719-13l-48.246094-48.25c-3.472656-3.472656-8.089843-5.382812-13-5.382812h-63.566406c21.148438-41.03125 42.703125-88.742188 42.703125-112.746094 0-47.703125-38.808593-86.511719-86.511719-86.511719-11.183593 0-21.878906 2.136719-31.703124 6.015625l-8.660157-8.660156c-3.472656-3.46875-8.085937-5.382812-13-5.382812h-74.371093c-1.417969 0-2.699219-.898438-3.179688-2.234376l-17.503906-48.523437c45.097656-43.351563 104.171875-67.171875 166.910156-67.171875 42.425781 0 84.140625 11.179688 120.632812 32.324219 3.667969 2.125 7.261719 4.367187 10.804688 6.683593v106.570313c0 .667969-.261719 1.296875-.734375 1.769531l-10.457031 10.460938c-3.304688 3.304687-5.125 7.699218-5.125 12.375v68.519531c0 4.675781 1.820312 9.070313 5.125 12.375l7.125 7.128906c2.570312 2.570313 5.824218 4.253907 9.40625 4.871094l50.730468 8.730469c.511719.089844.976563.328125 1.34375.699218l41.039063 41.039063c-10.949219 34.789063-29.785156 66.863281-55.582031 93.875zm0 0"/><path d="m236.277344 496.199219c-33.078125-2.683594-64.652344-11.96875-93.851563-27.601563-3.652343-1.957031-8.199219-.578125-10.152343 3.074219-1.957032 3.648437-.582032 8.195313 3.070312 10.148437 31.027344 16.613282 64.578125 26.480469 99.71875 29.328126.207031.015624.414062.023437.617188.023437 3.867187 0 7.148437-2.972656 7.464843-6.894531.335938-4.125-2.742187-7.742188-6.867187-8.078125zm0 0"/><path d="m237.507812 174.847656c-24.328124 0-44.121093 19.792969-44.121093 44.121094s19.792969 44.121094 44.121093 44.121094c24.328126 0 44.121094-19.792969 44.121094-44.121094s-19.792968-44.121094-44.121094-44.121094zm0 73.246094c-16.058593 0-29.121093-13.066406-29.121093-29.125s13.0625-29.121094 29.121093-29.121094c16.058594 0 29.121094 13.0625 29.121094 29.121094s-13.0625 29.125-29.121094 29.125zm0 0"/><path d="m103.445312 347.253906h17.988282c4.140625 0 7.5-3.355468 7.5-7.5 0-4.144531-3.359375-7.5-7.5-7.5h-17.988282c-4.140624 0-7.5 3.355469-7.5 7.5 0 4.144532 3.359376 7.5 7.5 7.5zm0 0"/><path d="m103.445312 375.042969h61.855469c4.140625 0 7.5-3.355469 7.5-7.5 0-4.140625-3.359375-7.5-7.5-7.5h-61.855469c-4.140624 0-7.5 3.359375-7.5 7.5 0 4.144531 3.359376 7.5 7.5 7.5zm0 0"/><path d="m103.445312 396.128906h61.855469c4.140625 0 7.5-3.355468 7.5-7.5 0-4.140625-3.359375-7.5-7.5-7.5h-61.855469c-4.140624 0-7.5 3.359375-7.5 7.5 0 4.144532 3.359376 7.5 7.5 7.5zm0 0"/></svg>