<?xml version="1.0" encoding="UTF-8" standalone="no"?>
<!-- Generator: Adobe Illustrator 19.0.0, SVG Export Plug-In . SVG Version: 6.00 Build 0)  -->

<svg
   xmlns:dc="http://purl.org/dc/elements/1.1/"
   xmlns:cc="http://creativecommons.org/ns#"
   xmlns:rdf="http://www.w3.org/1999/02/22-rdf-syntax-ns#"
   xmlns:svg="http://www.w3.org/2000/svg"
   xmlns="http://www.w3.org/2000/svg"
   xmlns:sodipodi="http://sodipodi.sourceforge.net/DTD/sodipodi-0.dtd"
   xmlns:inkscape="http://www.inkscape.org/namespaces/inkscape"
   version="1.1"
   id="Capa_1"
   x="0px"
   y="0px"
   viewBox="0 0 512 512"
   style="enable-background:new 0 0 512 512;"
   xml:space="preserve"
   sodipodi:docname="search.svg"
   inkscape:version="0.92.4 (5da689c313, 2019-01-14)"><metadata
   id="metadata61"><rdf:RDF><cc:Work
       rdf:about=""><dc:format>image/svg+xml</dc:format><dc:type
         rdf:resource="http://purl.org/dc/dcmitype/StillImage" /></cc:Work></rdf:RDF></metadata><defs
   id="defs59" /><sodipodi:namedview
   pagecolor="#ffffff"
   bordercolor="#666666"
   borderopacity="1"
   objecttolerance="10"
   gridtolerance="10"
   guidetolerance="10"
   inkscape:pageopacity="0"
   inkscape:pageshadow="2"
   inkscape:window-width="994"
   inkscape:window-height="777"
   id="namedview57"
   showgrid="false"
   inkscape:zoom="0.4609375"
   inkscape:cx="567.73834"
   inkscape:cy="256"
   inkscape:window-x="0"
   inkscape:window-y="0"
   inkscape:window-maximized="0"
   inkscape:current-layer="g4590" />
<g
   id="g6"
   style="fill:#f34970;fill-opacity:1">
	<g
   id="g4"
   style="fill:#f34970;fill-opacity:1">
		<path
   d="M509.8,465.178L389.565,344.943c-2.936-2.934-7.693-2.934-10.628,0l-3.188,3.188l-62.578-62.578    c24.087-30.095,38.516-68.238,38.516-109.695c0-96.96-78.883-175.843-175.843-175.843S0,78.898,0,175.858    s78.883,175.843,175.843,175.843c41.456,0,79.6-14.429,109.694-38.516l62.578,62.578l-3.188,3.188    c-2.935,2.936-2.935,7.693,0,10.628l120.235,120.235c2.896,2.894,7.732,2.895,10.628,0l34.007-34.007    C512.733,472.871,512.733,468.114,509.8,465.178z M175.843,336.672c-88.673,0-160.814-72.141-160.814-160.814    S87.17,15.044,175.843,15.044s160.814,72.141,160.814,160.814S264.517,336.672,175.843,336.672z M296.895,303.285    c2.179-2.071,4.304-4.196,6.375-6.375l61.85,61.85l-6.375,6.375L296.895,303.285z M470.478,493.873L360.87,384.265l23.381-23.381    l109.608,109.608L470.478,493.873z"
   id="path2"
   style="fill:#f34970;fill-opacity:1" />
	</g>
</g>
<g
   id="g12"
   style="fill:#f34970;fill-opacity:1">
	<g
   id="g10"
   style="fill:#f34970;fill-opacity:1">
		<path
   d="M277.865,74.544c-2.925-2.945-7.682-2.96-10.627-0.036c-2.944,2.924-2.961,7.682-0.036,10.627    c24.113,24.281,37.393,56.501,37.393,90.723c0,70.994-57.758,128.751-128.751,128.751S47.092,246.853,47.092,175.858    S104.85,47.107,175.843,47.107c21.184,0,42.183,5.252,60.725,15.19c3.659,1.962,8.214,0.583,10.173-3.073    c1.961-3.658,0.584-8.213-3.073-10.173c-20.718-11.104-44.172-16.972-67.824-16.972c-79.281,0-143.781,64.5-143.781,143.781    s64.5,143.781,143.781,143.781s143.781-64.501,143.781-143.782C319.624,137.64,304.793,101.66,277.865,74.544z"
   id="path8"
   style="fill:#f34970;fill-opacity:1" />
	</g>
</g>
<g
   id="g18">
	<g
   id="g16"
   style="fill:#f34970;fill-opacity:1">
		<path
   d="M247.984,175.358c8.564,0,15.53-6.967,15.53-15.53v-16.031c0-0.392-0.04-0.792-0.101-1.176    c-0.094-0.597-0.25-1.202-0.493-1.756l-15.974-39.936c-1.142-2.854-3.905-4.724-6.978-4.724h-128.25    c-3.072,0-5.835,1.871-6.978,4.724l-15.975,39.937c-0.393,0.907-0.594,1.946-0.594,2.932v16.031c0,8.564,6.967,15.53,15.53,15.53    h0.501v57.112h-8.517c-4.151,0-7.515,3.364-7.515,7.515c0,4.151,3.364,7.515,7.515,7.515h160.313c4.151,0,7.515-3.364,7.515-7.515    c0-4.151-3.364-7.515-7.515-7.515h-8.516v-57.112H247.984z M234.881,111.232l10.02,25.049h-14.802l-5.01-25.049H234.881z     M199.389,111.232h10.371l5.01,25.049h-15.381V111.232z M199.389,151.31h17.033v9.018h-17.033V151.31z M167.327,111.232h17.033    v25.049h-17.033V111.232z M167.327,151.31h17.033v9.018h-17.033V151.31z M141.926,111.232h10.371v25.049h-15.381L141.926,111.232z     M135.264,151.31h17.033v9.018h-17.033V151.31z M116.806,111.232h9.792l-5.01,25.049h-14.802L116.806,111.232z M103.703,160.328    c-0.276,0-0.501-0.225-0.501-0.501v-8.517h17.033v9.018H103.703z M160.313,232.469H143.28v-33.065h17.033V232.469z     M232.454,232.469h-57.112v-40.579c0-4.151-3.364-7.515-7.515-7.515h-32.063c-4.151,0-7.515,3.364-7.515,7.515v40.579h-9.018    v-57.112h113.221V232.469z M231.452,160.328v-9.018h17.033v8.517c0,0.276-0.225,0.501-0.501,0.501H231.452z"
   id="path14"
   style="fill:#f34970;fill-opacity:1" />
	</g>
<g
   id="g4590"
   transform="translate(-257.694,-352.768)" /></g>
<g
   id="g24"
   style="fill:#f34970;fill-opacity:1">
	<g
   id="g22"
   style="fill:#f34970;fill-opacity:1">
		<path
   d="M215.922,184.375h-24.047c-4.151,0-7.515,3.364-7.515,7.515v24.047c0,4.151,3.364,7.515,7.515,7.515h24.047    c4.151,0,7.515-3.364,7.515-7.515v-24.047C223.436,187.738,220.073,184.375,215.922,184.375z M208.407,208.422h-9.018v-9.018    h9.018V208.422z"
   id="path20"
   style="fill:#f34970;fill-opacity:1" />
	</g>
</g>
<g
   id="g26">
</g>
<g
   id="g28">
</g>
<g
   id="g30">
</g>
<g
   id="g32">
</g>
<g
   id="g34">
</g>
<g
   id="g36">
</g>
<g
   id="g38">
</g>
<g
   id="g40">
</g>
<g
   id="g42">
</g>
<g
   id="g44">
</g>
<g
   id="g46">
</g>
<g
   id="g48">
</g>
<g
   id="g50">
</g>
<g
   id="g52">
</g>
<g
   id="g54">
</g>
<style
   id="style4571"
   type="text/css">
	.st0{fill:#F34970;}
</style></svg>